# xmcd
#
# Track frame offsets:
# 150
# 11972
# 40353
# 65597
# 87422
# 114794
# 136252
# 150702
# 166723
# 190825
# 200412
# 226800
# 242642
#
# Disc length: 3414 seconds
#
#
# Revision: 0
# Processed by: cddbd v1.5.2PL0 Copyright (c) Steve Scherf et al.
# Submitted via: FreeRIP 2.93 
#
DISCID=a30d540d
DTITLE=Saxofourte - Bannoutah
DYEAR=2009
DGENRE=Classical
TTITLE0=ABDULLAH IBRAHIM: African Marketplace
TTITLE1=MOHAMED SAAD BASHA: Dandourmah
TTITLE2=OBO ADDY: Horn Talk
TTITLE3=HEINER WIBERNY: Ulla in Africa
TTITLE4=LUIS BORDA: Milonga de Alejandría
TTITLE5=MOHAMED SAAD BASHA: Bannoutah
TTITLE6=ISAK ROUX: Diepkloof Groove
TTITLE7=ISAK ROUX: Watermelon Song
TTITLE8=ISAK ROUX: Déjà Vu
TTITLE9=MOHAMED SAAD BASHA: A Gift from Egypt
TTITLE10=THORSTEN WOLLMANN: West Africa Revisited
TTITLE11=ABDULLAH IBRAHIM: The Mountain
TTITLE12=BECKY STELTZNER: Hambani Kakuhle Kwela
EXTD=
EXTT0=
EXTT1=
EXTT2=
EXTT3=
EXTT4=
EXTT5=
EXTT6=
EXTT7=
EXTT8=
EXTT9=
EXTT10=
EXTT11=
EXTT12=
PLAYORDER=
